<svg width="67" height="66" viewBox="0 0 67 66" fill="none" xmlns="http://www.w3.org/2000/svg">
<path d="M66.9937 1.38163V1.27665C67.0009 1.15678 67.0009 1.03658 66.9937 0.916712C67.0021 0.867073 67.0021 0.816378 66.9937 0.766739C66.9263 0.600967 66.8298 0.448592 66.7088 0.316819C66.5782 0.190403 66.4257 0.0887698 66.2588 0.0168737H66.1089C65.9849 -0.00562456 65.8579 -0.00562456 65.7339 0.0168737H65.584C65.4265 0.0323801 65.2709 0.0625045 65.119 0.106857L0.930589 26.6071C0.663628 26.7166 0.433909 26.9007 0.268983 27.1375C0.104057 27.3742 0.0109249 27.6535 0.000756577 27.9419C-0.00841473 28.2305 0.0659595 28.5157 0.214943 28.7631C0.363927 29.0105 0.581182 29.2097 0.840606 29.3366L25.4212 41.4244L37.644 64.9102C37.7707 65.1547 37.9622 65.3597 38.1977 65.5025C38.4331 65.6454 38.7034 65.7206 38.9787 65.7201C39.2628 65.7083 39.5377 65.6161 39.7714 65.4542C40.0051 65.2922 40.1879 65.0671 40.2985 64.8052L66.8887 1.90653C66.9628 1.7417 66.9987 1.56227 66.9937 1.38163ZM59.0901 5.61087L26.231 38.47L5.12983 28.0918L59.0901 5.61087ZM38.8288 60.696L28.3307 40.5696L61.1448 7.80047L38.8288 60.696Z" fill="#DF786D"/>
</svg>
