<svg width="181" height="37" viewBox="0 0 181 37" fill="none" xmlns="http://www.w3.org/2000/svg">
<g clip-path="url(#clip0_3001_365)">
<g clip-path="url(#clip1_3001_365)">
<path d="M24.6582 15.7866C20.832 14.239 13.1674 10.0181 12.9092 10.4233C12.5862 10.9316 14.5273 14.2546 14.7861 14.9009C14.9932 15.4179 17.3306 17.9478 18.4736 19.148L21.9668 23.7173L21.9941 23.7173L21.9941 25.1831C21.9941 25.8383 22.5255 26.3696 23.1807 26.3696L26.1797 26.3696C26.8348 26.3696 27.3662 25.8383 27.3662 25.1831L27.3662 23.7173L27.3936 23.7173L30.8877 19.1479C32.0307 17.9478 34.3682 15.4179 34.5752 14.9009C34.8341 14.2544 36.7746 10.9311 36.4512 10.4233C36.1907 10.0196 28.4842 14.2391 24.6582 15.7866Z" fill="#FC7869"/>
<path d="M43.9608 21.6794H46.6192C46.6985 22.2745 46.9432 22.7969 47.3532 23.2466C47.7764 23.6963 48.3319 24.0468 49.0196 24.2981C49.7074 24.5361 50.5009 24.6552 51.4003 24.6552C52.7361 24.6552 53.7942 24.4502 54.5745 24.0402C55.3548 23.617 55.745 23.0482 55.745 22.334C55.745 21.7521 55.5201 21.3157 55.0705 21.0247C54.6208 20.7337 53.8074 20.5155 52.6303 20.37L49.4164 19.9534C47.6177 19.7153 46.3083 19.2723 45.4883 18.6242C44.6816 17.9629 44.2782 17.0305 44.2782 15.8269C44.2782 14.9144 44.5493 14.1274 45.0916 13.4661C45.6471 12.7916 46.4274 12.2758 47.4325 11.9187C48.4377 11.5484 49.6148 11.3632 50.9638 11.3632C52.2996 11.3632 53.4834 11.5616 54.515 11.9584C55.5466 12.3552 56.3666 12.9106 56.975 13.6248C57.5966 14.3258 57.9338 15.1524 57.9868 16.1047H55.3284C55.2622 15.5757 55.0374 15.1194 54.6538 14.7358C54.2835 14.3523 53.7809 14.0547 53.1461 13.8431C52.5113 13.6182 51.764 13.5058 50.9043 13.5058C49.6875 13.5058 48.7154 13.7042 47.988 14.101C47.2606 14.4977 46.8969 15.04 46.8969 15.7277C46.8969 16.2568 47.1085 16.6668 47.5317 16.9577C47.9682 17.2355 48.7221 17.4471 49.7934 17.5926L53.0469 18.0489C54.3827 18.234 55.4342 18.4853 56.2013 18.8028C56.9816 19.1069 57.5371 19.5236 57.8677 20.0526C58.1984 20.5684 58.3637 21.2363 58.3637 22.0563C58.3637 23.0086 58.0727 23.8418 57.4908 24.556C56.9088 25.2702 56.0888 25.8257 55.0308 26.2224C53.9859 26.606 52.7626 26.7978 51.3606 26.7978C49.9322 26.7978 48.6692 26.5861 47.5714 26.1629C46.4869 25.7265 45.6272 25.1247 44.9924 24.3576C44.3575 23.5905 44.0137 22.6978 43.9608 21.6794ZM64.0689 23.1078V20.9453H74.4644V23.1078H64.0689ZM70.9728 11.641L78.1147 26.52H75.3174L68.8302 12.6329H69.8419L63.3547 26.52H60.5574L67.6994 11.641H70.9728ZM84.5308 11.641V25.3495L83.3603 24.2187H94.5692V26.52H81.9121V11.641H84.5308ZM118.56 11.641V26.52H116.06V12.4345L116.874 12.4742L109.95 26.52H107.153L100.229 12.494L101.042 12.4544V26.52H98.5426V11.641H102.55L109.216 25.3892H107.906L114.552 11.641H118.56ZM131.609 26.7978C129.916 26.7978 128.428 26.4737 127.145 25.8257C125.862 25.1776 124.864 24.2782 124.15 23.1276C123.435 21.9637 123.078 20.6147 123.078 19.0805C123.078 17.5463 123.435 16.2039 124.15 15.0532C124.864 13.8894 125.862 12.9834 127.145 12.3353C128.428 11.6873 129.916 11.3632 131.609 11.3632C133.302 11.3632 134.79 11.6873 136.073 12.3353C137.356 12.9834 138.354 13.8894 139.068 15.0532C139.782 16.2039 140.14 17.5463 140.14 19.0805C140.14 20.6147 139.782 21.9637 139.068 23.1276C138.354 24.2782 137.356 25.1776 136.073 25.8257C134.79 26.4737 133.302 26.7978 131.609 26.7978ZM131.609 24.4568C132.812 24.4568 133.851 24.2386 134.724 23.8021C135.597 23.3657 136.271 22.744 136.747 21.9373C137.237 21.1305 137.481 20.1782 137.481 19.0805C137.481 17.9827 137.237 17.0305 136.747 16.2237C136.271 15.4169 135.597 14.7953 134.724 14.3589C133.851 13.9224 132.812 13.7042 131.609 13.7042C130.419 13.7042 129.38 13.9224 128.494 14.3589C127.621 14.7953 126.94 15.4169 126.451 16.2237C125.975 17.0305 125.737 17.9827 125.737 19.0805C125.737 20.1782 125.975 21.1305 126.451 21.9373C126.94 22.744 127.621 23.3657 128.494 23.8021C129.38 24.2386 130.419 24.4568 131.609 24.4568ZM158.456 24.9329L157.384 25.052V11.641H159.924V26.52H156.591L146.156 13.109L147.207 12.99V26.52H144.668V11.641H148.08L158.456 24.9329Z" fill="white"/>
</g>
</g>
<defs>
<clipPath id="clip0_3001_365">
<rect width="180" height="36.1121" fill="white" transform="translate(0.455078 0.862793)"/>
</clipPath>
<clipPath id="clip1_3001_365">
<rect width="180" height="36.1121" fill="white" transform="translate(0.455078 0.862793)"/>
</clipPath>
</defs>
</svg>
