<svg width="17" height="17" viewBox="0 0 17 17" fill="none" xmlns="http://www.w3.org/2000/svg">
<path d="M14.8313 0.492188H1.19687C0.54375 0.492188 0.015625 1.00781 0.015625 1.64531V15.3359C0.015625 15.9734 0.54375 16.4922 1.19687 16.4922H14.8313C15.4844 16.4922 16.0156 15.9734 16.0156 15.3391V1.64531C16.0156 1.00781 15.4844 0.492188 14.8313 0.492188ZM4.7625 14.1266H2.3875V6.48906H4.7625V14.1266ZM3.575 5.44844C2.8125 5.44844 2.19688 4.83281 2.19688 4.07344C2.19688 3.31406 2.8125 2.69844 3.575 2.69844C4.33438 2.69844 4.95 3.31406 4.95 4.07344C4.95 4.82969 4.33438 5.44844 3.575 5.44844ZM13.65 14.1266H11.2781V10.4141C11.2781 9.52969 11.2625 8.38906 10.0437 8.38906C8.80937 8.38906 8.62187 9.35469 8.62187 10.3516V14.1266H6.25313V6.48906H8.52812V7.53281H8.55937C8.875 6.93281 9.65 6.29844 10.8031 6.29844C13.2063 6.29844 13.65 7.87969 13.65 9.93594V14.1266V14.1266Z" fill="#1F1F1F"/>
</svg>
